<svg version="1.2" xmlns="http://www.w3.org/2000/svg" viewBox="0 0 800 800" width="800" height="800"><style>.a{fill:#fff}.b{fill:none;stroke:#fff;stroke-miterlimit:100;stroke-width:61}</style><path class="a" d="m193.1 230.4h406.8v96.6h80.8v-169.5h-241.8v-63.1h-82.8v63.1h-240.6v169.5h77.6zm492.9 214.9h-246.5v-5.2c54.6-32.9 105.2-78.9 142.6-122.3l-49.9-38.1-18.4 3.9h-288.5v71h219.5c-18.4 17.8-39.4 35.5-59.8 49.3h-28.3v41.4h-243.1v74.3h243.1v96.6c0 9.2-3.9 11.8-17.1 11.8-13.1 0.7-62.4 0-102.5-1.3 13.2 21.7 28.9 56.5 34.2 80.2 53.9 0 95.9-1.4 126.8-13.2 32.2-12.5 41.4-32.8 41.4-75.6v-98.5h246.5z"/><path fill-rule="evenodd" class="b" d="m800 0v800h-800v-800z"/></svg>